#!OML:ASF H:\Terrain\Walking\May29\JustinRory\Justin.ASF
:FULLY-SPECIFIED
:DEGREES
49
root 14.8302 17.6446 7.81534 -169.081 1.16835 -174.12
lowerback 3.84594 4.84043 4.18816
upperback 0.841384 6.70887 0.951699
thorax -0.917478 3.37683 -1.63518
lowerneck -13.7835 -5.95526 -13.5668
upperneck 15.3853 -6.26316 4.4595
head 7.59544 -3.45801 2.9702
rclavicle -8.01102e-014 -1.31198e-014
rhumerus -15.9379 0.274294 -78.7536
rradius 46.6702
rwrist -15.8695
rhand -12.4046 19.5397
rfingers 7.12502
rthumb 13.667 -9.99158
lclavicle -8.01102e-014 -1.31198e-014
lhumerus -34.4604 8.81758 82.4788
lradius 37.7998
lwrist -7.92421
lhand 4.99099 37.2478
lfingers 7.12502
lthumb 30.3614 64.769
rfemur 13.423 0.11581 28.46
rtibia 6.04305e-014
rfoot -10.175 -1.37471
rtoes -2.89991
lfemur -43.4426 6.82285 -18.3653
ltibia 29.592
lfoot -9.94126 4.71312
ltoes -23.5521
50
root 14.841 17.6512 7.67699 -169.227 1.14458 -174.101
lowerback 3.90426 4.84259 4.14831
upperback 0.821745 6.7144 0.974451
thorax -0.977169 3.3782 -1.59766
lowerneck -13.731 -5.954 -13.7984
upperneck 15.4519 -6.26779 4.70862
head 7.62462 -3.45442 3.0906
rclavicle 1.78409e-014 -5.36719e-015
rhumerus -15.5034 0.714744 -78.7997
rradius 46.6954
rwrist -15.8601
rhand -12.5211 20.0293
rfingers 7.12502
rthumb 13.5548 -9.50947
lclavicle 1.78409e-014 -5.36719e-015
lhumerus -34.6991 9.16601 82.0892
lradius 38.1152
lwrist -7.64697
lhand 4.77361 37.023
lfingers 7.12502
lthumb 30.154 64.5823
rfemur 14.0002 -0.260863 28.4433
rtibia -6.36111e-014
rfoot -9.83964 -1.04988
rtoes -2.72334
lfemur -43.1612 6.15108 -18.2592
ltibia 28.815
lfoot -9.76725 5.34233
ltoes -22.3667
51
root 14.8492 17.6414 7.52427 -169.569 0.655726 -174.283
lowerback 4.07971 4.66218 4.05312
upperback 0.811768 6.47771 0.957109
thorax -1.10691 3.25679 -1.57341
lowerneck -13.8759 -5.98126 -14.0039
upperneck 15.7304 -6.28969 4.92353
head 7.75823 -3.46447 3.18919
rclavicle -3.97569e-015 -6.55989e-015
rhumerus -15.3551 1.2613 -78.8752
rradius 46.9524
rwrist -15.8152
rhand -11.5605 20.9592
rfingers 7.12502
rthumb 14.4805 -8.51548
lclavicle -3.97569e-015 -6.55989e-015
lhumerus -34.9567 9.42338 81.6821
lradius 38.3251
lwrist -7.3697
lhand 4.63283 37.049
lfingers 7.12502
lthumb 30.0197 64.6327
rfemur 14.8759 -1.13796 28.2252
rtibia -6.99722e-014
rfoot -9.47633 -0.599692
rtoes -1.17769
lfemur -42.7106 5.16571 -18.3788
ltibia 28.3059
lfoot -9.88817 5.75816
ltoes -19.8406
52
root 14.8644 17.6236 7.37805 -169.82 0.406914 -174.236
lowerback 4.10453 4.63233 4.03982
upperback 0.868475 6.44096 0.994738
thorax -1.07027 3.2414 -1.52585
lowerneck -13.8488 -6.01673 -14.0336
upperneck 15.7238 -6.32907 4.87886
head 7.75516 -3.48949 3.17434
rclavicle -5.35228e-014 -1.19271e-014
rhumerus -15.0819 1.77723 -78.8577
rradius 47.4094
rwrist -15.8284
rhand -11.2411 21.0916
rfingers 7.12502
rthumb 14.7883 -8.36076
lclavicle -5.35228e-014 -1.19271e-014
lhumerus -35.0343 9.43507 81.4288
lradius 38.4457
lwrist -7.05847
lhand 4.45199 37.2089
lfingers 7.12502
lthumb 29.8471 64.8237
rfemur 15.6625 -1.74242 28.2668
rtibia 3.18055e-014
rfoot -8.79469 -0.274116
rtoes -2.36213
lfemur -42.3696 4.44938 -18.3206
ltibia 28.07
lfoot -9.91768 6.37053
ltoes -19.0763
53
root 14.8703 17.6164 7.24737 -169.771 1.00599 -174.134
lowerback 3.98484 4.87608 4.00921
upperback 0.879068 6.75373 0.922848
thorax -0.970462 3.39854 -1.58031
lowerneck -13.8448 -6.03253 -13.8227
upperneck 15.7126 -6.36172 4.68502
head 7.74023 -3.5099 3.07194
rclavicle -5.62064e-014 -1.46107e-014
rhumerus -14.5571 2.37486 -78.9572
rradius 47.7867
rwrist -16.1244
rhand -11.8046 20.9774
rfingers 7.12502
rthumb 14.2453 -8.514
lclavicle -5.62064e-014 -1.46107e-014
lhumerus -34.9964 9.46575 81.1112
lradius 38.4766
lwrist -6.87813
lhand 4.06387 37.1299
lfingers 7.12502
lthumb 29.4767 64.8107
rfemur 16.0641 -1.46378 28.1919
rtibia 2.54444e-014
rfoot -7.92031 -0.0270044
rtoes -4.43744
lfemur -42.3009 4.08228 -18.1721
ltibia 28.1563
lfoot -9.98062 7.46584
ltoes -19.1788
54
root 14.8868 17.6161 7.11199 -169.306 2.52653 -174.118
lowerback 3.603 5.45334 3.52527
upperback 0.673913 7.47077 0.743449
thorax -0.96667 3.74791 -1.49535
lowerneck -14.0876 -6.06387 -13.8148
upperneck 16.1139 -6.41359 4.83885
head 7.9253 -3.52872 3.11062
rclavicle -1.2275e-014 -6.65929e-015
rhumerus -14.2035 2.6626 -79.1648
rradius 47.9694
rwrist -16.267
rhand -11.9574 21.2392
rfingers 7.12502
rthumb 14.098 -8.26259
lclavicle -1.2275e-014 -6.65929e-015
lhumerus -34.9875 9.43195 80.7068
lradius 38.3128
lwrist -6.74335
lhand 3.67843 37.2631
lfingers 7.12502
lthumb 29.1086 65.0081
rfemur 14.1976 -0.248303 27.8666
rtibia 3.6572
rfoot -8.92906 0.478524
rtoes -5.41281
lfemur -42.5575 4.81055 -18.3782
ltibia 28.499
lfoot -10.2351 8.11481
ltoes -17.8859
55
root 14.8988 17.593 6.95604 -169.503 2.78617 -173.792
lowerback 3.76908 5.58743 3.6966
upperback 0.549834 7.66746 0.771255
thorax -1.15859 3.84033 -1.59189
lowerneck -14.1277 -6.08646 -14.0701
upperneck 16.4593 -6.48022 5.2604
head 8.07668 -3.54795 3.28466
rclavicle 8.8161e-014 8.74653e-015
rhumerus -14.1204 2.62044 -79.2701
rradius 48.1176
rwrist -15.9403
rhand -11.6021 20.9805
rfingers 7.12502
rthumb 14.4404 -8.49712
lclavicle 8.8161e-014 8.74653e-015
lhumerus -35.2553 9.46764 80.2781
lradius 38.2486
lwrist -6.6428
lhand 3.53948 37.658
lfingers 7.12502
lthumb 28.9759 65.4259
rfemur 13.2801 -0.299841 28.0752
rtibia 6.92306
rfoot -9.8671 1.01305
rtoes -4.92269
lfemur -42.1238 5.20837 -18.4099
ltibia 28.9493
lfoot -10.1732 7.72031
ltoes -14.5213
56
root 14.91 17.5637 6.79789 -169.713 3.09796 -173.239
lowerback 3.91583 5.71951 4.10054
upperback 0.439487 7.8748 0.821382
thorax -1.29647 3.93903 -1.78846
lowerneck -14.0518 -6.11595 -14.046
upperneck 16.7173 -6.58626 5.40748
head 8.16388 -3.5944 3.31918
rclavicle -5.88837e-014 -1.36167e-014
rhumerus -13.9791 2.6262 -79.4471
rradius 48.3757
rwrist -15.7837
rhand -11.3758 20.5517
rfingers 7.12502
rthumb 14.6585 -8.91015
lclavicle -5.88837e-014 -1.36167e-014
lhumerus -35.5709 9.72983 79.7098
lradius 38.3222
lwrist -6.75923
lhand 3.4913 37.6923
lfingers 7.12502
lthumb 28.9299 65.4681
rfemur 12.7009 -0.268008 28.5116
rtibia 9.52151
rfoot -10.0719 1.4392
rtoes -5.21739
lfemur -41.5963 5.52518 -18.0686
ltibia 29.5023
lfoot -10.0069 7.56929
ltoes -13.875
57
root 14.9163 17.5448 6.63275 -169.834 3.34028 -173.322
lowerback 3.81443 5.83024 3.86364
upperback 0.363575 7.99911 0.710775
thorax -1.32698 3.9972 -1.77057
lowerneck -14.0647 -6.13363 -13.8972
upperneck 16.9459 -6.66207 5.42825
head 8.24511 -3.62712 3.29291
rclavicle -2.54818e-014 -1.37006e-014
rhumerus -13.9051 3.02318 -79.6466
rradius 48.9282
rwrist -16.128
rhand -11.6258 20.4925
rfingers 7.12502
rthumb 14.4176 -8.98674
lclavicle -2.54818e-014 -1.37006e-014
lhumerus -35.8272 10.0235 79.1174
lradius 38.4037
lwrist -6.90774
lhand 3.54764 37.4604
lfingers 7.12502
lthumb 28.9837 65.227
rfemur 12.3197 -0.382199 28.2353
rtibia 11.5434
rfoot -9.82789 1.77953
rtoes -7.33549
lfemur -41.1483 5.57687 -18.4261
ltibia 30.2003
lfoot -9.88927 7.55634
ltoes -19.668
58
root 14.9171 17.538 6.46483 -170.004 3.57106 -173.461
lowerback 3.66877 5.97042 3.7347
upperback 0.35004 8.16208 0.514131
thorax -1.23955 4.07734 -1.8881
lowerneck -14.0355 -6.12531 -13.6659
upperneck 16.9357 -6.70847 5.45987
head 8.23269 -3.63043 3.26211
rclavicle 1.77664e-014 2.88238e-015
rhumerus -13.8975 3.38038 -79.868
rradius 49.5837
rwrist -16.4686
rhand -12.346 20.0466
rfingers 7.12502
rthumb 13.7235 -9.4809
lclavicle 1.77664e-014 2.88238e-015
lhumerus -36.0292 10.1581 78.5021
lradius 38.4594
lwrist -6.97622
lhand 3.59372 37.2147
lfingers 7.12502
lthumb 29.0277 64.9737
rfemur 12.0014 -0.767059 27.7591
rtibia 13.5417
rfoot -9.29727 2.53541
rtoes -8.74895
lfemur -40.5742 5.45875 -18.7489
ltibia 30.8901
lfoot -9.25846 7.31444
ltoes -17.5981
59
root 14.9214 17.5441 6.29696 -170.179 3.77373 -172.952
lowerback 3.64678 6.10501 4.23134
upperback 0.275541 8.3634 0.492748
thorax -1.21923 4.17536 -2.18238
lowerneck -14.0288 -6.16649 -13.5138
upperneck 17.0651 -6.81225 5.47757
head 8.27972 -3.67232 3.2309
rclavicle -7.56624e-014 2.08724e-014
rhumerus -13.7403 3.63045 -80.0697
rradius 49.8291
rwrist -16.6712
rhand -12.6337 19.9707
rfingers 7.12502
rthumb 13.4463 -9.57525
lclavicle -7.56624e-014 2.08724e-014
lhumerus -36.2757 10.369 77.8592
lradius 38.4341
lwrist -7.0649
lhand 3.49178 37.1613
lfingers 7.12502
lthumb 28.9304 64.937
rfemur 11.6366 -0.920039 28.0076
rtibia 15.582
rfoot -8.46031 3.27982
rtoes -9.02783
lfemur -40.0537 5.35583 -18.1584
ltibia 31.4929
lfoot -7.81408 6.95297
ltoes -19.8211
